HIERARCHY
ROOT hip
{
  OFFSET 0 90.174 2.4664
  CHANNELS 6 Xposition Yposition Zposition Zrotation Xrotation Yrotation
  JOINT abdomen
  {
    OFFSET 0 -1.186 -1.5018
    CHANNELS 6 Xposition Yposition Zposition Zrotation Xrotation Yrotation
    JOINT abdomen2
    {
      OFFSET 0 9.964 0.2134
      CHANNELS 6 Xposition Yposition Zposition Zrotation Xrotation Yrotation
      JOINT chest
      {
        OFFSET 0 13.134 -3.2573
        CHANNELS 6 Xposition Yposition Zposition Zrotation Xrotation Yrotation
        JOINT neck
        {
          OFFSET 0 20.686 -1.6905
          CHANNELS 6 Xposition Yposition Zposition Zrotation Xrotation Yrotation
          JOINT head
          {
            OFFSET 0 7.238 -0.1237
            CHANNELS 6 Xposition Yposition Zposition Zrotation Xrotation Yrotation
            End Site
            {
              OFFSET 0 0 0
            }
          }
        }
        JOINT lCollar
        {
          OFFSET 1.7069 20.075 5.0056
          CHANNELS 6 Xposition Yposition Zposition Zrotation Xrotation Yrotation
          JOINT lShldr
          {
            OFFSET 13.6458 -0.047 -4.849
            CHANNELS 6 Xposition Yposition Zposition Zrotation Xrotation Yrotation
            JOINT lForeArm
            {
              OFFSET 28.3255 -0.9759 2.2888
              CHANNELS 6 Xposition Yposition Zposition Zrotation Xrotation Yrotation
              JOINT lHand
              {
                OFFSET 22.1583 -0.53 10.8316
                CHANNELS 6 Xposition Yposition Zposition Zrotation Xrotation Yrotation
                JOINT lThumb1
                {
                  OFFSET 0.786 0.112 2.5817
                  CHANNELS 6 Xposition Yposition Zposition Zrotation Xrotation Yrotation
                  JOINT lThumb2
                  {
                    OFFSET 0.3601 -0.878 4.2331
                    CHANNELS 6 Xposition Yposition Zposition Zrotation Xrotation Yrotation
                    JOINT lThumb2_End
                    {
                      OFFSET 1.8127 -1.216 2.2227
                      CHANNELS 6 Xposition Yposition Zposition Zrotation Xrotation Yrotation
                      End Site
                      {
                        OFFSET 0.0181 -0.0122 0.0222
                      }
                    }
                  }
                }
                JOINT lCarpal1
                {
                  OFFSET 0.9571 1.114 1.7695
                  CHANNELS 6 Xposition Yposition Zposition Zrotation Xrotation Yrotation
                  JOINT lIndex1
                  {
                    OFFSET 4.1246 0.487 4.1451
                    CHANNELS 6 Xposition Yposition Zposition Zrotation Xrotation Yrotation
                    JOINT lIndex2
                    {
                      OFFSET 3.4052 -1.454 2.7682
                      CHANNELS 6 Xposition Yposition Zposition Zrotation Xrotation Yrotation
                      JOINT lIndex2_End
                      {
                        OFFSET 1.4531 -1.795 1.2713
                        CHANNELS 6 Xposition Yposition Zposition Zrotation Xrotation Yrotation
                        End Site
                        {
                          OFFSET 0.0145 -0.0179 0.0127
                        }
                      }
                    }
                  }
                  JOINT lMid1
                  {
                    OFFSET 5.6954 0.21 2.1184
                    CHANNELS 6 Xposition Yposition Zposition Zrotation Xrotation Yrotation
                    JOINT lMid2
                    {
                      OFFSET 3.9766 -1.54 2.3863
                      CHANNELS 6 Xposition Yposition Zposition Zrotation Xrotation Yrotation
                      JOINT lMid2_End
                      {
                        OFFSET 1.4042 -1.926 1.125
                        CHANNELS 6 Xposition Yposition Zposition Zrotation Xrotation Yrotation
                        End Site
                        {
                          OFFSET 0.014 -0.0193 0.0113
                        }
                      }
                    }
                  }
                }
                JOINT lCarpal2
                {
                  OFFSET 2.0956 0.66 -0.3894
                  CHANNELS 6 Xposition Yposition Zposition Zrotation Xrotation Yrotation
                  JOINT lRing1
                  {
                    OFFSET 5.0395 -0.09 2.4971
                    CHANNELS 6 Xposition Yposition Zposition Zrotation Xrotation Yrotation
                    JOINT lRing2
                    {
                      OFFSET 3.7921 -1.552 1.4806
                      CHANNELS 6 Xposition Yposition Zposition Zrotation Xrotation Yrotation
                      JOINT lRing2_End
                      {
                        OFFSET 1.4655 -1.808 0.9609
                        CHANNELS 6 Xposition Yposition Zposition Zrotation Xrotation Yrotation
                        End Site
                        {
                          OFFSET 0.0147 -0.0181 0.0096
                        }
                      }
                    }
                  }
                  JOINT lPinky1
                  {
                    OFFSET 4.9141 -1.269 0.3591
                    CHANNELS 6 Xposition Yposition Zposition Zrotation Xrotation Yrotation
                    JOINT lPinky2
                    {
                      OFFSET 3.1477 -1.685 0.8462
                      CHANNELS 6 Xposition Yposition Zposition Zrotation Xrotation Yrotation
                      JOINT lPinky2_End
                      {
                        OFFSET 0.8055 -1.585 0.7955
                        CHANNELS 6 Xposition Yposition Zposition Zrotation Xrotation Yrotation
                        End Site
                        {
                          OFFSET 0.0081 -0.0158 0.008
                        }
                      }
                    }
                  }
                }
              }
            }
          }
        }
        JOINT rCollar
        {
          OFFSET -1.7069 20.075 5.0056
          CHANNELS 6 Xposition Yposition Zposition Zrotation Xrotation Yrotation
          JOINT rShldr
          {
            OFFSET -13.6458 -0.047 -4.849
            CHANNELS 6 Xposition Yposition Zposition Zrotation Xrotation Yrotation
            JOINT rForeArm
            {
              OFFSET -28.3255 -0.9759 2.2888
              CHANNELS 6 Xposition Yposition Zposition Zrotation Xrotation Yrotation
              JOINT rHand
              {
                OFFSET -22.1583 -0.53 10.8316
                CHANNELS 6 Xposition Yposition Zposition Zrotation Xrotation Yrotation
                JOINT rThumb1
                {
                  OFFSET -0.786 0.112 2.5817
                  CHANNELS 6 Xposition Yposition Zposition Zrotation Xrotation Yrotation
                  JOINT rThumb2
                  {
                    OFFSET -0.3601 -0.878 4.2331
                    CHANNELS 6 Xposition Yposition Zposition Zrotation Xrotation Yrotation
                    JOINT rThumb2_End
                    {
                      OFFSET -1.8127 -1.216 2.2227
                      CHANNELS 6 Xposition Yposition Zposition Zrotation Xrotation Yrotation
                      End Site
                      {
                        OFFSET -0.0181 -0.0122 0.0222
                      }
                    }
                  }
                }
                JOINT rCarpal1
                {
                  OFFSET -0.9571 1.114 1.7695
                  CHANNELS 6 Xposition Yposition Zposition Zrotation Xrotation Yrotation
                  JOINT rIndex1
                  {
                    OFFSET -4.1246 0.487 4.1451
                    CHANNELS 6 Xposition Yposition Zposition Zrotation Xrotation Yrotation
                    JOINT rIndex2
                    {
                      OFFSET -3.4052 -1.454 2.7682
                      CHANNELS 6 Xposition Yposition Zposition Zrotation Xrotation Yrotation
                      JOINT rIndex2_End
                      {
                        OFFSET -1.4531 -1.795 1.2713
                        CHANNELS 6 Xposition Yposition Zposition Zrotation Xrotation Yrotation
                        End Site
                        {
                          OFFSET -0.0145 -0.018 0.0127
                        }
                      }
                    }
                  }
                  JOINT rMid1
                  {
                    OFFSET -5.6954 0.21 2.1184
                    CHANNELS 6 Xposition Yposition Zposition Zrotation Xrotation Yrotation
                    JOINT rMid2
                    {
                      OFFSET -3.9766 -1.54 2.3863
                      CHANNELS 6 Xposition Yposition Zposition Zrotation Xrotation Yrotation
                      JOINT rMid2_End
                      {
                        OFFSET -1.4042 -1.926 1.125
                        CHANNELS 6 Xposition Yposition Zposition Zrotation Xrotation Yrotation
                        End Site
                        {
                          OFFSET -0.014 -0.0193 0.0113
                        }
                      }
                    }
                  }
                }
                JOINT rCarpal2
                {
                  OFFSET -2.0956 0.66 -0.3894
                  CHANNELS 6 Xposition Yposition Zposition Zrotation Xrotation Yrotation
                  JOINT rRing1
                  {
                    OFFSET -5.0395 -0.09 2.4971
                    CHANNELS 6 Xposition Yposition Zposition Zrotation Xrotation Yrotation
                    JOINT rRing2
                    {
                      OFFSET -3.7921 -1.552 1.4806
                      CHANNELS 6 Xposition Yposition Zposition Zrotation Xrotation Yrotation
                      JOINT rRing2_End
                      {
                        OFFSET -1.4655 -1.808 0.9609
                        CHANNELS 6 Xposition Yposition Zposition Zrotation Xrotation Yrotation
                        End Site
                        {
                          OFFSET -0.0147 -0.0181 0.0096
                        }
                      }
                    }
                  }
                  JOINT rPinky1
                  {
                    OFFSET -4.9141 -1.269 0.3592
                    CHANNELS 6 Xposition Yposition Zposition Zrotation Xrotation Yrotation
                    JOINT rPinky2
                    {
                      OFFSET -3.1477 -1.685 0.8462
                      CHANNELS 6 Xposition Yposition Zposition Zrotation Xrotation Yrotation
                      JOINT rPinky2_End
                      {
                        OFFSET -0.8055 -1.585 0.7955
                        CHANNELS 6 Xposition Yposition Zposition Zrotation Xrotation Yrotation
                        End Site
                        {
                          OFFSET -0.0081 -0.0158 0.008
                        }
                      }
                    }
                  }
                }
              }
            }
          }
        }
      }
    }
  }
  JOINT lThigh
  {
    OFFSET 8.367 -8.2066 0.5982
    CHANNELS 6 Xposition Yposition Zposition Zrotation Xrotation Yrotation
    JOINT lShin
    {
      OFFSET 2.1923 -43.463 -0.4932
      CHANNELS 6 Xposition Yposition Zposition Zrotation Xrotation Yrotation
      JOINT lFoot
      {
        OFFSET 0.7333 -45.8593 -2.6451
        CHANNELS 6 Xposition Yposition Zposition Zrotation Xrotation Yrotation
        End Site
        {
          OFFSET 2.6618 -4.2699 12.3931
        }
      }
    }
  }
  JOINT rThigh
  {
    OFFSET -8.367 -8.2066 0.5982
    CHANNELS 6 Xposition Yposition Zposition Zrotation Xrotation Yrotation
    JOINT rShin
    {
      OFFSET -2.1923 -43.463 -0.4931
      CHANNELS 6 Xposition Yposition Zposition Zrotation Xrotation Yrotation
      JOINT rFoot
      {
        OFFSET -0.7333 -45.8593 -2.6451
        CHANNELS 6 Xposition Yposition Zposition Zrotation Xrotation Yrotation
        End Site
        {
          OFFSET -2.6618 -4.2699 12.3931
        }
      }
    }
  }
}
MOTION
Frames:	4
Frame Time:	0.0333333
0 90.174 2.4664 0 0 -0 0 -1.186 -1.5018 0 0 -0 0 9.964 0.2134 0 0 -0 0 13.134 -3.2573 0 0 -0 0 20.686 -1.6905 0 0 -0 0 7.238 -0.1237 0 0 -0 1.7069 20.075 5.0056 0 0 -0 13.6458 -0.047 -4.849 1.66051 0.0835086 5.75766 28.3255 -0.9759 2.2888 -0.0175111 0.895433 15.7816 22.1583 -0.53 10.8316 7.95139e-016 -1.98785e-016 -0 0.786 0.112 2.5817 5.46658e-016 -3.97569e-016 -0 0.3601 -0.878 4.2331 5.96354e-016 0 -0 1.8127 -1.216 2.2227 3.97569e-016 1.98785e-016 9.54166e-015 0.9571 1.114 1.7695 1.49089e-016 -3.97569e-016 -0 4.1246 0.487 4.1451 6.4605e-016 0 3.18055e-015 3.4052 -1.454 2.7682 5.96354e-016 0 3.18055e-015 1.4531 -1.795 1.2713 8.94531e-016 -1.98785e-016 6.36111e-015 5.6954 0.21 2.1184 6.4605e-016 0 3.18055e-015 3.9766 -1.54 2.3863 5.96354e-016 0 3.18055e-015 1.4042 -1.926 1.125 8.94531e-016 -1.98785e-016 6.36111e-015 2.0956 0.66 -0.3894 1.49089e-016 -3.97569e-016 -0 5.0395 -0.09 2.4971 6.4605e-016 0 3.18055e-015 3.7921 -1.552 1.4806 5.96354e-016 0 3.18055e-015 1.4655 -1.808 0.9609 8.94531e-016 -1.98785e-016 6.36111e-015 4.9141 -1.269 0.3591 6.4605e-016 0 3.18055e-015 3.1477 -1.685 0.8462 5.96354e-016 0 3.18055e-015 0.8055 -1.585 0.7955 8.94531e-016 -1.98785e-016 6.36111e-015 -1.7069 20.075 5.0056 0 0 -0 -13.6458 -0.047 -4.849 -1.4496 0.0636048 -5.0245 -28.3255 -0.9759 2.2888 -1.74811 1.20616 -16.8394 -22.1583 -0.53 10.8316 -1.19271e-015 1.98785e-016 -3.18055e-015 -0.786 0.112 2.5817 -3.97569e-016 1.98785e-016 -3.18055e-015 -0.3601 -0.878 4.2331 -2.98177e-016 1.98785e-016 -3.18055e-015 -1.8127 -1.216 2.2227 -2.98177e-016 3.97569e-016 -0 -0.9571 1.114 1.7695 4.96962e-016 0 -6.36111e-015 -4.1246 0.487 4.1451 -9.93923e-017 3.97569e-016 -0 -3.4052 -1.454 2.7682 -8.94531e-016 5.96354e-016 -0 -1.4531 -1.795 1.2713 -3.97569e-016 3.97569e-016 -0 -5.6954 0.21 2.1184 -9.93923e-017 3.97569e-016 -0 -3.9766 -1.54 2.3863 -8.94531e-016 5.96354e-016 -0 -1.4042 -1.926 1.125 -3.97569e-016 3.97569e-016 -0 -2.0956 0.66 -0.3894 4.96962e-016 0 -6.36111e-015 -5.0395 -0.09 2.4971 -9.93923e-017 3.97569e-016 -0 -3.7921 -1.552 1.4806 -8.94531e-016 5.96354e-016 -0 -1.4655 -1.808 0.9609 -3.97569e-016 3.97569e-016 -0 -4.9141 -1.269 0.3592 -9.93923e-017 3.97569e-016 -0 -3.1477 -1.685 0.8462 -8.94531e-016 5.96354e-016 -0 -0.8055 -1.585 0.7955 -3.97569e-016 3.97569e-016 -0 8.367 -8.2066 0.5982 -4.66115 -1.03232 0.120763 2.1923 -43.463 -0.4932 0.00990601 1.55097 0.177175 0.7333 -45.8593 -2.6451 4.65196 -0.54114 -0.255042 -8.367 -8.2066 0.5982 4.66115 -1.03222 -0.120763 -2.1923 -43.463 -0.4931 -0.00990459 1.5509 -0.177176 -0.7333 -45.8593 -2.6451 -4.65196 -0.541171 0.255041 
5.93266 63.7276 -2.75559 19.1383 -27.8323 36.6367 0 -1.186 -1.5018 0.735523 1.10872 0.102672 0 9.964 0.2134 1.4695 2.21867 0.191199 1.77636e-015 13.134 -3.2573 1.4695 2.21867 0.191197 3.55271e-015 20.686 -1.6905 -4.45292e-005 10.3694 1.79767e-005 1.77636e-015 7.238 -0.1237 1.4819e-006 5.92481 1.24624e-005 1.7069 20.075 5.0056 -2.70066e-005 -5.03012e-005 1.00635e-005 13.6458 -0.047 -4.849 -26.3713 7.60107 10.396 28.3255 -0.9759 2.2888 2.55923 7.49917 2.10259 22.1583 -0.53 10.8316 -7.9265 3.24145 0.081146 0.786 0.112 2.5817 9.54166e-015 -9.54166e-015 -9.54166e-015 0.3601 -0.878 4.2331 1.11319e-014 -9.54166e-015 -1.59028e-014 1.8127 -1.216 2.2227 9.54166e-015 -1.59028e-014 -3.18055e-015 0.9571 1.114 1.7695 -4.77083e-015 3.18055e-015 -3.18055e-015 4.1246 0.487 4.1451 9.54166e-015 -6.36111e-015 3.18055e-015 3.4052 -1.454 2.7682 9.54166e-015 -6.36111e-015 -6.36111e-015 1.4531 -1.795 1.2713 1.11319e-014 -1.59028e-014 -9.54166e-015 5.6954 0.21 2.1184 9.54166e-015 -6.36111e-015 3.18055e-015 3.9766 -1.54 2.3863 9.54166e-015 -6.36111e-015 -6.36111e-015 1.4042 -1.926 1.125 1.11319e-014 -1.59028e-014 -9.54166e-015 2.0956 0.66 -0.3894 -4.77083e-015 3.18055e-015 -3.18055e-015 5.0395 -0.09 2.4971 9.54166e-015 -6.36111e-015 3.18055e-015 3.7921 -1.552 1.4806 9.54166e-015 -6.36111e-015 -6.36111e-015 1.4655 -1.808 0.9609 1.11319e-014 -1.59028e-014 -9.54166e-015 4.9141 -1.269 0.3591 9.54166e-015 -6.36111e-015 3.18055e-015 3.1477 -1.685 0.8462 9.54166e-015 -6.36111e-015 -6.36111e-015 0.8055 -1.585 0.7955 1.11319e-014 -1.59028e-014 -9.54166e-015 -1.7069 20.075 5.0056 -2.31004e-005 -3.70456 1.07609e-005 -13.6458 -0.047 -4.849 -0.447439 -21.7176 11.1542 -28.3255 -0.9759 2.2888 5.4365 -4.30061 30.156 -22.1583 -0.53 10.8316 -3.43895 -1.70432 5.41244 -0.786 0.112 2.5817 -1.05258e-006 -3.44832e-006 -5.98414e-006 -0.3601 -0.878 4.2331 -5.59994e-007 4.80624e-007 4.29344e-007 -1.8127 -1.216 2.2227 6.08496e-006 2.55746e-006 -1.72494e-006 -0.9571 1.114 1.7695 7.72434e-032 5.56597e-015 -7.95139e-016 -4.1246 0.487 4.1451 -1.05258e-006 -3.44832e-006 -5.98414e-006 -3.4052 -1.454 2.7682 -5.59994e-007 4.80623e-007 4.29344e-007 -1.4531 -1.795 1.2713 6.08496e-006 2.55746e-006 -1.72494e-006 -5.6954 0.21 2.1184 -1.05258e-006 -3.44832e-006 -5.98414e-006 -3.9766 -1.54 2.3863 -5.59994e-007 4.80623e-007 4.29344e-007 -1.4042 -1.926 1.125 6.08496e-006 2.55746e-006 -1.72494e-006 -2.0956 0.66 -0.3894 7.72434e-032 5.56597e-015 -7.95139e-016 -5.0395 -0.09 2.4971 -1.05258e-006 -3.44832e-006 -5.98414e-006 -3.7921 -1.552 1.4806 -5.59994e-007 4.80623e-007 4.29344e-007 -1.4655 -1.808 0.9609 6.08496e-006 2.55746e-006 -1.72494e-006 -4.9141 -1.269 0.3592 -1.05258e-006 -3.44832e-006 -5.98414e-006 -3.1477 -1.685 0.8462 -5.59994e-007 4.80623e-007 4.29344e-007 -0.8055 -1.585 0.7955 6.08496e-006 2.55746e-006 -1.72494e-006 8.367 -8.2066 0.5982 0.5465 -10.75 2.81818 2.1923 -43.463 -0.4932 0.0869016 22.779 1.79637 0.7333 -45.8593 -2.6451 6.83548 18.9675 -2.64427 -8.367 -8.2066 0.5982 3.2219 -14.5016 -1.53299 -2.1923 -43.463 -0.4931 -0.137054 33.7035 -1.91488 -0.7333 -45.8593 -2.6451 -4.9749 10.9715 0.744869 
8.46743 33.9702 -3.18493 64.3077 -24.0087 78.933 -8.88178e-016 -1.186 -1.5018 1.45744 2.21241 0.262884 0 9.964 0.2134 2.90797 4.43078 0.469701 0 13.134 -3.2573 2.90797 4.43078 0.469733 0 20.686 -1.6905 -0.000390718 20.7392 -1.18732e-006 0 7.238 -0.1237 1.16802e-006 11.8496 -2.43179e-006 1.7069 20.075 5.0056 -1.74077e-005 -1.98958e-005 -1.37466e-005 13.6458 -0.047 -4.849 -55.6712 14.9633 15.2822 28.3255 -0.9759 2.2888 8.25642 12.5316 -12.1325 22.1583 -0.53 10.8316 -15.8942 6.44296 0.595656 0.786 0.112 2.5817 -4.77083e-015 -3.18055e-015 7.95139e-015 0.3601 -0.878 4.2331 4.77083e-015 0 -0 1.8127 -1.216 2.2227 -3.5475e-006 1.25104e-006 -4.00295e-007 0.9571 1.114 1.7695 -4.77083e-015 -3.18055e-015 6.36111e-015 4.1246 0.487 4.1451 -9.54166e-015 6.36111e-015 1.90833e-014 3.4052 -1.454 2.7682 -1.59028e-015 -3.18055e-015 7.95139e-015 1.4531 -1.795 1.2713 -3.5475e-006 1.25104e-006 -4.00295e-007 5.6954 0.21 2.1184 -9.54166e-015 6.36111e-015 1.90833e-014 3.9766 -1.54 2.3863 -1.59028e-015 -3.18055e-015 7.95139e-015 1.4042 -1.926 1.125 -3.5475e-006 1.25104e-006 -4.00295e-007 2.0956 0.66 -0.3894 -4.77083e-015 -3.18055e-015 6.36111e-015 5.0395 -0.09 2.4971 -9.54166e-015 6.36111e-015 1.90833e-014 3.7921 -1.552 1.4806 -1.59028e-015 -3.18055e-015 7.95139e-015 1.4655 -1.808 0.9609 -3.5475e-006 1.25104e-006 -4.00295e-007 4.9141 -1.269 0.3591 -9.54166e-015 6.36111e-015 1.90833e-014 3.1477 -1.685 0.8462 -1.59028e-015 -3.18055e-015 7.95139e-015 0.8055 -1.585 0.7955 -3.5475e-006 1.25104e-006 -4.00295e-007 -1.7069 20.075 5.0056 -2.04391e-005 -7.40905 -1.47606e-005 -13.6458 -0.047 -4.849 15.0517 -37.7142 34.303 -28.3255 -0.9759 2.2888 16.5184 -1.07467 77.1446 -22.1583 -0.53 10.8316 -6.85463 -3.39685 10.7441 -0.786 0.112 2.5817 -1.09107e-006 -3.05623e-006 -3.93712e-006 -0.3601 -0.878 4.2331 -3.18055e-015 -3.18055e-015 -9.54166e-015 -1.8127 -1.216 2.2227 -1.59028e-015 -4.77083e-015 -3.18055e-015 -0.9571 1.114 1.7695 7.95139e-016 1.59028e-015 -6.36111e-015 -4.1246 0.487 4.1451 -1.09107e-006 -3.05623e-006 -3.93712e-006 -3.4052 -1.454 2.7682 -7.95139e-016 -4.77083e-015 -0 -1.4531 -1.795 1.2713 -1.59028e-015 -3.18055e-015 -6.36111e-015 -5.6954 0.21 2.1184 -1.09107e-006 -3.05623e-006 -3.93712e-006 -3.9766 -1.54 2.3863 -7.95139e-016 -4.77083e-015 -0 -1.4042 -1.926 1.125 -1.59028e-015 -3.18055e-015 -6.36111e-015 -2.0956 0.66 -0.3894 7.95139e-016 1.59028e-015 -6.36111e-015 -5.0395 -0.09 2.4971 -1.09107e-006 -3.05623e-006 -3.93712e-006 -3.7921 -1.552 1.4806 -7.95139e-016 -4.77083e-015 -0 -1.4655 -1.808 0.9609 -1.59028e-015 -3.18055e-015 -6.36111e-015 -4.9141 -1.269 0.3592 -1.09107e-006 -3.05623e-006 -3.93712e-006 -3.1477 -1.685 0.8462 -7.95139e-016 -4.77083e-015 -0 -0.8055 -1.585 0.7955 -1.59028e-015 -3.18055e-015 -6.36111e-015 8.367 -8.2066 0.5982 6.5594 -20.8645 5.81787 2.1923 -43.463 -0.4932 0.179319 44.8344 2.09097 0.7333 -45.8593 -2.6451 9.94364 38.1705 -4.23937 -8.367 -8.2066 0.5982 1.49216 -28.5982 -3.37721 -2.1923 -43.463 -0.4931 -0.404345 66.7791 -2.22273 -0.7333 -45.8593 -2.6451 -4.95824 22.2912 -0.505748 
11.7444 11.9784 -0.190173 90.0018 -4.00327 90.0018 0 -1.186 -1.5018 1.952 2.98136 0.409089 0 9.964 0.2134 3.89048 5.97483 0.717722 -5.55112e-017 13.134 -3.2573 3.89051 5.97483 0.717731 -5.55112e-016 20.686 -1.6905 0.000256298 27.9974 -0.000102294 0 7.238 -0.1237 7.06344e-006 15.997 -7.15701e-006 1.7069 20.075 5.0056 2.51629e-005 1.04855e-005 1.15838e-005 13.6458 -0.047 -4.849 -76.9875 19.9341 18.9873 28.3255 -0.9759 2.2888 13.8227 14.4911 -22.4724 22.1583 -0.53 10.8316 -21.518 8.32035 1.1879 0.786 0.112 2.5817 -1.53324e-006 2.4927e-007 6.51632e-007 0.3601 -0.878 4.2331 -1.0347e-006 3.31575e-006 1.21069e-006 1.8127 -1.216 2.2227 -2.38542e-015 -9.54166e-015 6.36111e-015 0.9571 1.114 1.7695 -1.59028e-015 -3.18055e-015 -7.95139e-016 4.1246 0.487 4.1451 -1.53324e-006 2.4927e-007 6.51632e-007 3.4052 -1.454 2.7682 -1.0347e-006 3.31575e-006 1.21069e-006 1.4531 -1.795 1.2713 -2.38542e-015 -3.18055e-015 7.95139e-015 5.6954 0.21 2.1184 -1.53324e-006 2.4927e-007 6.51632e-007 3.9766 -1.54 2.3863 -1.0347e-006 3.31575e-006 1.21069e-006 1.4042 -1.926 1.125 -2.38542e-015 -3.18055e-015 7.95139e-015 2.0956 0.66 -0.3894 -1.59028e-015 -3.18055e-015 -7.95139e-016 5.0395 -0.09 2.4971 -1.53324e-006 2.4927e-007 6.51632e-007 3.7921 -1.552 1.4806 -1.0347e-006 3.31575e-006 1.21069e-006 1.4655 -1.808 0.9609 -2.38542e-015 -3.18055e-015 7.95139e-015 4.9141 -1.269 0.3591 -1.53324e-006 2.4927e-007 6.51632e-007 3.1477 -1.685 0.8462 -1.0347e-006 3.31575e-006 1.21069e-006 0.8055 -1.585 0.7955 -2.38542e-015 -3.18055e-015 7.95139e-015 -1.7069 20.075 5.0056 1.84726e-005 -10.0022 2.50212e-006 -13.6458 -0.047 -4.849 34.1994 -41.2938 55.2713 -28.3255 -0.9759 2.2888 20.6923 6.48143 109.29 -22.1583 -0.53 10.8316 -9.23461 -4.5705 14.4296 -0.786 0.112 2.5817 3.18055e-015 7.95139e-016 1.59028e-015 -0.3601 -0.878 4.2331 6.36111e-015 2.38542e-015 7.95139e-016 -1.8127 -1.216 2.2227 0 0 -7.95139e-016 -0.9571 1.114 1.7695 3.18055e-015 7.95139e-016 1.59028e-015 -4.1246 0.487 4.1451 6.36111e-015 7.15625e-015 9.54166e-015 -3.4052 -1.454 2.7682 3.18055e-015 -7.95139e-016 7.95139e-016 -1.4531 -1.795 1.2713 -3.18055e-015 -7.95139e-016 -1.59028e-015 -5.6954 0.21 2.1184 6.36111e-015 7.15625e-015 9.54166e-015 -3.9766 -1.54 2.3863 3.18055e-015 -7.95139e-016 7.95139e-016 -1.4042 -1.926 1.125 -3.18055e-015 -7.95139e-016 -1.59028e-015 -2.0956 0.66 -0.3894 3.18055e-015 7.95139e-016 1.59028e-015 -5.0395 -0.09 2.4971 6.36111e-015 7.15625e-015 9.54166e-015 -3.7921 -1.552 1.4806 3.18055e-015 -7.95139e-016 7.95139e-016 -1.4655 -1.808 0.9609 -3.18055e-015 -7.95139e-016 -1.59028e-015 -4.9141 -1.269 0.3592 6.36111e-015 7.15625e-015 9.54166e-015 -3.1477 -1.685 0.8462 3.18055e-015 -7.95139e-016 7.95139e-016 -0.8055 -1.585 0.7955 -3.18055e-015 -7.95139e-016 -1.59028e-015 8.367 -8.2066 0.5982 11.399 -27.9975 8.30674 2.1923 -43.463 -0.4932 0.392726 60.5857 2.86659 0.7333 -45.8593 -2.6451 13.7146 51.2164 -7.0594 -8.367 -8.2066 0.5982 -0.162613 -38.7548 -5.53881 -2.1923 -43.463 -0.4931 -92.7748 89.7538 88.823 -0.7333 -45.8593 -2.6451 -4.86106 30.3652 -1.08468 
